<svg version="1.1" id="Layer_1" xmlns="http://www.w3.org/2000/svg" xmlns:xlink="http://www.w3.org/1999/xlink" x="0px" y="0px"
	 width="100%" viewBox="0 0 251 201" enable-background="new 0 0 251 201" xml:space="preserve">
<path fill="#07080A" opacity="1.000000" stroke="none" 
	d="
M150.000000,202.000000 
	C100.000000,202.000000 50.500008,202.000000 1.000007,202.000000 
	C1.000004,135.000000 1.000004,68.000015 1.000002,1.000016 
	C84.666656,1.000010 168.333313,1.000010 251.999969,1.000005 
	C251.999985,67.999985 251.999985,134.999969 252.000000,201.999969 
	C218.166672,202.000000 184.333328,202.000000 150.000000,202.000000 
M131.242615,109.119804 
	C130.116531,109.389328 128.890244,109.460976 127.885315,109.969788 
	C125.825775,111.012566 122.781708,111.907173 122.202492,113.577110 
	C121.611565,115.280777 122.976471,118.279800 124.391411,119.938644 
	C127.725037,123.846924 131.536850,127.360420 135.294464,130.885178 
	C136.285309,131.814636 137.752106,132.666962 139.053574,132.753433 
	C142.797363,133.002182 146.568359,132.841187 150.328674,132.841187 
	C148.618378,129.615204 146.217102,127.441147 143.895081,125.185509 
	C141.583344,122.939873 139.351166,120.612335 136.927551,118.162460 
	C138.296341,117.267044 139.275879,116.666794 140.213333,116.006744 
	C149.408005,109.532784 153.270081,99.492050 150.629715,88.959587 
	C148.078918,78.784256 139.504990,71.342880 128.327957,70.646423 
	C119.603065,70.102776 110.817200,70.537560 101.825478,70.537560 
	C101.825478,73.817291 101.825478,76.898979 101.825478,80.617104 
	C109.964790,80.617104 117.909180,80.430817 125.840820,80.668846 
	C133.972351,80.912872 139.641434,85.328117 140.979889,91.910591 
	C142.477539,99.275948 139.475052,104.954704 131.242615,109.119804 
M111.706894,132.016342 
	C111.706894,121.477448 111.706894,110.938545 111.706894,100.083977 
	C117.170731,100.083977 121.823120,100.246811 126.457291,100.026367 
	C129.513489,99.880974 131.215805,98.140564 131.116653,94.796165 
	C131.021545,91.588654 129.154968,90.265236 126.376678,90.209381 
	C119.902863,90.079247 113.420006,90.046158 106.949707,90.252541 
	C104.037933,90.345413 101.913162,91.835213 101.917290,95.228424 
	C101.932434,107.669189 101.923302,120.109978 101.923302,132.685364 
	C105.145149,132.685364 108.111259,132.685364 111.706894,132.016342 
z"/>
<path fill="#F7F7F7" opacity="1.000000" stroke="none" 
	d="
M131.617554,109.014359 
	C139.475052,104.954704 142.477539,99.275948 140.979889,91.910591 
	C139.641434,85.328117 133.972351,80.912872 125.840820,80.668846 
	C117.909180,80.430817 109.964790,80.617104 101.825478,80.617104 
	C101.825478,76.898979 101.825478,73.817291 101.825478,70.537560 
	C110.817200,70.537560 119.603065,70.102776 128.327957,70.646423 
	C139.504990,71.342880 148.078918,78.784256 150.629715,88.959587 
	C153.270081,99.492050 149.408005,109.532784 140.213333,116.006744 
	C139.275879,116.666794 138.296341,117.267044 136.927551,118.162460 
	C139.351166,120.612335 141.583344,122.939873 143.895081,125.185509 
	C146.217102,127.441147 148.618378,129.615204 150.328674,132.841187 
	C146.568359,132.841187 142.797363,133.002182 139.053574,132.753433 
	C137.752106,132.666962 136.285309,131.814636 135.294464,130.885178 
	C131.536850,127.360420 127.725037,123.846924 124.391411,119.938644 
	C122.976471,118.279800 121.611565,115.280777 122.202492,113.577110 
	C122.781708,111.907173 125.825775,111.012566 127.885315,109.969788 
	C128.890244,109.460976 130.116531,109.389328 131.617554,109.014359 
z"/>
<path fill="#F7F7F7" opacity="1.000000" stroke="none" 
	d="
M111.392136,132.350861 
	C108.111259,132.685364 105.145149,132.685364 101.923302,132.685364 
	C101.923302,120.109978 101.932434,107.669189 101.917290,95.228424 
	C101.913162,91.835213 104.037933,90.345413 106.949707,90.252541 
	C113.420006,90.046158 119.902863,90.079247 126.376678,90.209381 
	C129.154968,90.265236 131.021545,91.588654 131.116653,94.796165 
	C131.215805,98.140564 129.513489,99.880974 126.457291,100.026367 
	C121.823120,100.246811 117.170731,100.083977 111.706894,100.083977 
	C111.706894,110.938545 111.706894,121.477448 111.392136,132.350861 
z"/>
</svg>