<svg version="1.1" id="Layer_1" xmlns="http://www.w3.org/2000/svg" xmlns:xlink="http://www.w3.org/1999/xlink" x="0px" y="0px"
	 width="100%" viewBox="0 0 225 225" enable-background="new 0 0 225 225" xml:space="preserve">
<path fill="#FEFEFE" opacity="1.000000" stroke="none" 
	d="
M129.000000,226.000000 
	C86.000000,226.000000 43.500004,226.000000 1.000006,226.000000 
	C1.000004,151.000000 1.000004,76.000015 1.000002,1.000016 
	C75.999992,1.000010 150.999985,1.000010 225.999969,1.000005 
	C225.999985,75.999985 225.999985,150.999969 226.000000,225.999969 
	C193.833328,226.000000 161.666672,226.000000 129.000000,226.000000 
M154.158417,208.797668 
	C171.611572,208.797668 189.064713,208.797668 206.764771,208.797668 
	C206.764771,204.983231 206.764771,201.555542 206.764771,197.451736 
	C192.927460,197.180069 186.825317,186.970779 180.601944,176.659653 
	C169.711624,158.616165 158.566589,140.726471 147.546799,122.760979 
	C146.909500,121.722000 146.437805,120.581459 145.838776,119.388054 
	C173.928726,113.635063 185.432556,102.814445 187.551575,77.833229 
	C189.888458,50.283772 179.547363,34.090538 153.325211,27.369520 
	C143.425644,24.832157 133.006180,23.366434 122.792671,23.187906 
	C90.652023,22.626099 58.496639,22.904490 26.346941,22.874826 
	C25.414364,22.873966 24.481611,23.065851 23.643456,23.157526 
	C23.643456,26.952831 23.643456,30.357494 23.643456,33.721146 
	C40.995205,35.510906 42.992767,37.595032 42.994995,53.708805 
	C43.000771,95.520653 42.999252,137.332504 42.989780,179.144348 
	C42.989326,181.141663 43.040207,183.157883 42.800014,185.132797 
	C42.006397,191.658096 39.556129,194.506348 33.137173,196.141373 
	C29.964291,196.949570 26.691629,197.366043 23.667351,197.922363 
	C23.667351,201.737000 23.667351,205.154099 23.667351,208.542053 
	C51.432430,208.542053 78.849571,208.542053 106.442131,208.542053 
	C106.442131,204.883163 106.442131,201.482407 106.442131,197.932617 
	C104.945587,197.627075 103.663765,197.287125 102.359818,197.111313 
	C89.680916,195.401703 87.049690,192.491013 87.011940,179.790741 
	C86.967384,164.798584 87.001266,149.806183 87.001160,134.813889 
	C87.001137,130.706635 87.001160,126.599396 87.001160,122.187027 
	C89.202843,122.187027 90.879822,122.427574 92.462860,122.143883 
	C98.209229,121.114098 101.201324,123.772003 104.066635,128.675400 
	C119.041641,154.302109 134.422684,179.691833 149.734894,205.120407 
	C150.593414,206.546127 152.096558,207.583694 154.158417,208.797668 
z"/>
<path fill="#010101" opacity="1.000000" stroke="none" 
	d="
M153.729034,208.799805 
	C152.096558,207.583694 150.593414,206.546127 149.734894,205.120407 
	C134.422684,179.691833 119.041641,154.302109 104.066635,128.675400 
	C101.201324,123.772003 98.209229,121.114098 92.462860,122.143883 
	C90.879822,122.427574 89.202843,122.187027 87.001160,122.187027 
	C87.001160,126.599396 87.001137,130.706635 87.001160,134.813889 
	C87.001266,149.806183 86.967384,164.798584 87.011940,179.790741 
	C87.049690,192.491013 89.680916,195.401703 102.359818,197.111313 
	C103.663765,197.287125 104.945587,197.627075 106.442131,197.932617 
	C106.442131,201.482407 106.442131,204.883163 106.442131,208.542053 
	C78.849571,208.542053 51.432430,208.542053 23.667351,208.542053 
	C23.667351,205.154099 23.667351,201.737000 23.667351,197.922363 
	C26.691629,197.366043 29.964291,196.949570 33.137173,196.141373 
	C39.556129,194.506348 42.006397,191.658096 42.800014,185.132797 
	C43.040207,183.157883 42.989326,181.141663 42.989780,179.144348 
	C42.999252,137.332504 43.000771,95.520653 42.994995,53.708805 
	C42.992767,37.595032 40.995205,35.510906 23.643456,33.721146 
	C23.643456,30.357494 23.643456,26.952831 23.643456,23.157526 
	C24.481611,23.065851 25.414364,22.873966 26.346941,22.874826 
	C58.496639,22.904490 90.652023,22.626099 122.792671,23.187906 
	C133.006180,23.366434 143.425644,24.832157 153.325211,27.369520 
	C179.547363,34.090538 189.888458,50.283772 187.551575,77.833229 
	C185.432556,102.814445 173.928726,113.635063 145.838776,119.388054 
	C146.437805,120.581459 146.909500,121.722000 147.546799,122.760979 
	C158.566589,140.726471 169.711624,158.616165 180.601944,176.659653 
	C186.825317,186.970779 192.927460,197.180069 206.764771,197.451736 
	C206.764771,201.555542 206.764771,204.983231 206.764771,208.797668 
	C189.064713,208.797668 171.611572,208.797668 153.729034,208.799805 
M88.774803,102.464546 
	C89.595367,102.058189 90.415939,101.651825 91.969963,101.112320 
	C106.829430,94.933281 122.610451,93.986298 138.372437,93.052673 
	C144.383820,92.696602 145.242722,91.645485 144.438400,85.864639 
	C142.520096,72.077461 139.703613,58.329998 141.798004,43.120213 
	C124.213852,62.665535 107.233147,81.540108 89.779594,100.831322 
	C89.273994,101.106422 88.768394,101.381523 88.361557,102.278633 
	C88.647690,102.301292 88.933815,102.323959 89.219948,102.346626 
	C88.884712,102.125252 88.549469,101.903877 88.774803,102.464546 
z"/>
<path fill="#F1F5F5" opacity="1.000000" stroke="none" 
	d="
M90.252441,100.414673 
	C107.233147,81.540108 124.213852,62.665535 141.798004,43.120213 
	C139.703613,58.329998 142.520096,72.077461 144.438400,85.864639 
	C145.242722,91.645485 144.383820,92.696602 138.372437,93.052673 
	C122.610451,93.986298 106.829430,94.933281 91.363129,100.964195 
	C90.588341,100.682274 90.420387,100.548470 90.252441,100.414673 
z"/>
<path fill="#F1F5F5" opacity="1.000000" stroke="none" 
	d="
M90.996399,101.030762 
	C90.415939,101.651825 89.595367,102.058189 88.530548,102.089752 
	C88.286301,101.714958 88.262787,101.656624 88.262787,101.656624 
	C88.768394,101.381523 89.273994,101.106422 90.016014,100.623001 
	C90.420387,100.548470 90.588341,100.682274 90.996399,101.030762 
z"/>
<path fill="#F1F5F5" opacity="1.000000" stroke="none" 
	d="
M88.250267,101.698730 
	C88.549469,101.903877 88.884712,102.125252 89.219948,102.346626 
	C88.933815,102.323959 88.647690,102.301292 88.312172,101.967628 
	C88.262787,101.656624 88.286301,101.714958 88.250267,101.698730 
z"/>
</svg>